<?xml version="1.0" encoding="UTF-8"?>
<svg id="_圖層_2" data-name="圖層 2" xmlns="http://www.w3.org/2000/svg" viewBox="0 0 377 231">
  <g id="_圖層_1-2" data-name="圖層 1">
    <path d="M345.5,79h-19.17c2.96-4.8,4.67-10.45,4.67-16.5h0c0-17.4-14.1-31.5-31.5-31.5h-42.51c-.27-17.17-14.26-31-31.49-31h-93c-17.23,0-31.22,13.83-31.49,31H52.5c-17.4,0-31.5,14.1-31.5,31.5h0c0,17.4,14.1,31.5,31.5,31.5h.17c-2.96,4.8-4.67,10.45-4.67,16.5h0c0,4.06,.78,7.94,2.18,11.5H31.5c-17.4,0-31.5,14.1-31.5,31.5H0c0,17.4,14.1,31.5,31.5,31.5h39.81c5.65,8.44,15.27,14,26.19,14h45.51c0,.17-.01,.33-.01,.5h0c0,17.4,14.1,31.5,31.5,31.5h93c17.4,0,31.5-14.1,31.5-31.5h0c0-.17-.01-.33-.01-.5h20.51c17.4,0,31.5-14.1,31.5-31.5h0c0-10.49-5.13-19.77-13.02-25.5h7.52c17.4,0,31.5-14.1,31.5-31.5h0c0-17.4-14.1-31.5-31.5-31.5Z"/>
  </g>
</svg>